<svg width="60" height="60" viewBox="0 0 60 60" fill="none" xmlns="http://www.w3.org/2000/svg">
<path d="M60 30C60 46.5685 46.5685 60 30 60C13.4315 60 0 46.5685 0 30C0 13.4315 13.4315 0 30 0C46.5685 0 60 13.4315 60 30Z" fill="#0E121A"/>
<path fill-rule="evenodd" clip-rule="evenodd" d="M30 59C46.0163 59 59 46.0163 59 30C59 13.9837 46.0163 1 30 1C13.9837 1 1 13.9837 1 30C1 46.0163 13.9837 59 30 59ZM30 60C46.5685 60 60 46.5685 60 30C60 13.4315 46.5685 0 30 0C13.4315 0 0 13.4315 0 30C0 46.5685 13.4315 60 30 60Z" fill="#775DDA"/>
<path d="M26.3075 23.1635L26.307 23.164C26.2167 23.2438 26.0779 23.235 25.9985 23.1449L25.9978 23.1441C25.919 23.0549 25.9266 22.9165 26.0177 22.8361C27.7026 21.3489 29.9132 20.4479 32.3334 20.4479C37.6048 20.4479 41.8855 24.7286 41.8855 30C41.8855 35.2714 37.6048 39.5521 32.3334 39.5521C29.913 39.5521 27.7023 38.651 26.0174 37.1637C25.9266 37.0832 25.9191 36.945 25.9978 36.856L25.9985 36.8552C26.0779 36.7651 26.2167 36.7563 26.307 36.8361L26.3075 36.8366C27.9135 38.2528 30.024 39.1146 32.3334 39.1146C37.3637 39.1146 41.448 35.0303 41.448 30C41.448 24.9698 37.3637 20.8854 32.3334 20.8854C30.024 20.8854 27.9135 21.7473 26.3075 23.1635Z" fill="white" stroke="white" stroke-width="1.3125"/>
<path d="M31.3474 30.0527L31.347 30.0524C31.2092 29.9155 31.1317 29.7285 31.1317 29.5334V24.8667C31.1317 24.461 31.461 24.1317 31.8667 24.1317C32.2724 24.1317 32.6017 24.461 32.6017 24.8667V29.1705V29.2285L32.6427 29.2695L36.1194 32.7473L36.1195 32.7475C36.4065 33.0335 36.4065 33.4999 36.1195 33.7859L36.1192 33.7862C35.8332 34.0731 35.3668 34.0731 35.0809 33.7862L35.0807 33.786L31.3474 30.0527Z" fill="white" stroke="#0E121A" stroke-width="0.28"/>
<path d="M25.3334 26.6517H18.3334C17.9277 26.6517 17.5984 26.3224 17.5984 25.9167C17.5984 25.511 17.9277 25.1817 18.3334 25.1817H25.3334C25.7391 25.1817 26.0684 25.511 26.0684 25.9167C26.0684 26.3224 25.7391 26.6517 25.3334 26.6517Z" fill="white" stroke="#0E121A" stroke-width="0.28"/>
<path d="M26.5 30.735H19.5C19.0943 30.735 18.765 30.4057 18.765 30C18.765 29.5943 19.0943 29.265 19.5 29.265H26.5C26.9057 29.265 27.235 29.5943 27.235 30C27.235 30.4057 26.9057 30.735 26.5 30.735Z" fill="white" stroke="#0E121A" stroke-width="0.28"/>
<path d="M27.6667 34.8184H20.6667C20.2611 34.8184 19.9317 34.4891 19.9317 34.0834C19.9317 33.6777 20.2611 33.3484 20.6667 33.3484H27.6667C28.0724 33.3484 28.4017 33.6777 28.4017 34.0834C28.4017 34.4891 28.0724 34.8184 27.6667 34.8184Z" fill="white" stroke="#0E121A" stroke-width="0.28"/>
</svg>
