<svg width="60" height="60" viewBox="0 0 60 60" fill="none" xmlns="http://www.w3.org/2000/svg">
<path d="M60 30C60 46.5685 46.5685 60 30 60C13.4315 60 0 46.5685 0 30C0 13.4315 13.4315 0 30 0C46.5685 0 60 13.4315 60 30Z" fill="#0E121A"/>
<path fill-rule="evenodd" clip-rule="evenodd" d="M30 59C46.0163 59 59 46.0163 59 30C59 13.9837 46.0163 1 30 1C13.9837 1 1 13.9837 1 30C1 46.0163 13.9837 59 30 59ZM30 60C46.5685 60 60 46.5685 60 30C60 13.4315 46.5685 0 30 0C13.4315 0 0 13.4315 0 30C0 46.5685 13.4315 60 30 60Z" fill="#775DDA"/>
<path d="M27.6729 17.8721C22.2625 17.8721 17.8766 22.258 17.8766 27.6684C17.8766 33.0787 22.2625 37.4646 27.6729 37.4646C33.0832 37.4646 37.4692 33.0787 37.4692 27.6684C37.4633 22.2605 33.0808 17.878 27.6729 17.8721ZM27.6729 18.805C30.5544 18.8073 33.2546 20.2117 34.9109 22.5696L33.7447 23.7358C33.4609 23.5641 33.136 23.4722 32.8043 23.4699C31.7737 23.4699 30.9383 24.3054 30.9383 25.3359C30.9399 25.668 31.0313 25.9934 31.2028 26.2777L28.1482 29.3323C27.5698 28.9797 26.8429 28.9797 26.2645 29.3323L24.1429 27.2107C24.3144 26.9264 24.4058 26.601 24.4074 26.2689C24.4087 25.2404 23.576 24.4056 22.5475 24.4043C21.697 24.4033 20.9538 24.9786 20.7418 25.8024H19.0111C19.8943 21.7237 23.4997 18.8112 27.6729 18.805ZM33.7372 25.3359C33.7372 25.8512 33.3196 26.2689 32.8043 26.2689C32.289 26.2689 31.8713 25.8512 31.8713 25.3359C31.8713 24.8206 32.289 24.4029 32.8043 24.4029C33.3196 24.4029 33.7372 24.8206 33.7372 25.3359ZM28.1394 30.9338C28.1394 31.4491 27.7217 31.8668 27.2064 31.8668C26.6911 31.8668 26.2734 31.4491 26.2734 30.9338C26.2734 30.4185 26.6911 30.0008 27.2064 30.0008C27.7217 30.0008 28.1394 30.4185 28.1394 30.9338ZM23.4745 26.2689C23.4745 26.7842 23.0568 27.2019 22.5415 27.2019C22.0262 27.2019 21.6085 26.7842 21.6085 26.2689C21.6085 25.7536 22.0262 25.3359 22.5415 25.3359C23.0568 25.3359 23.4745 25.7536 23.4745 26.2689ZM31.9794 35.4183C30.662 36.1497 29.1798 36.5329 27.6729 36.5316C22.7811 36.5349 18.8129 32.5722 18.8096 27.6804C18.8093 27.3647 18.826 27.0492 18.8595 26.7353H20.7418C20.9538 27.5566 21.6932 28.1316 22.5415 28.1348C22.8736 28.1332 23.199 28.0418 23.4833 27.8703L25.6049 29.9919C25.4334 30.2762 25.3421 30.6016 25.3404 30.9337C25.3404 31.9643 26.1758 32.7997 27.2064 32.7997C28.2369 32.7997 29.0723 31.9643 29.0723 30.9337C29.0707 30.6016 28.9793 30.2762 28.8078 29.9919L31.8624 26.9373C32.1467 27.1088 32.4722 27.2002 32.8043 27.2018C33.8348 27.2018 34.6702 26.3664 34.6702 25.3358C34.6686 25.0038 34.5772 24.6783 34.4057 24.394L35.4227 23.3775C37.7968 27.6534 36.2552 33.0442 31.9794 35.4183Z" fill="white"/>
<path d="M39.3351 20.671C40.1833 20.6678 40.9227 20.0929 41.1348 19.2716H44V18.3386H41.1348C40.9227 17.5172 40.1833 16.9423 39.3351 16.9391C38.3045 16.9391 37.4691 17.7745 37.4691 18.8051C37.4708 19.1372 37.5621 19.4626 37.7336 19.7469L36.914 20.5665C32.9923 15.4573 25.6712 14.4945 20.5619 18.4163C15.4526 22.338 14.4899 29.6591 18.4116 34.7684C22.1134 39.5912 28.8992 40.7611 34.0022 37.4563L35.41 38.8641L36.0697 39.5238L39.8249 43.279C40.78 44.2341 42.3284 44.2341 43.2835 43.279C44.2385 42.3239 44.2385 40.7755 43.2835 39.8204L39.5282 36.0652L38.8686 35.4056L37.4607 33.9977C39.9599 30.1482 39.9599 25.1886 37.4607 21.339L38.3937 20.4061C38.6779 20.5776 39.0032 20.6692 39.3351 20.671ZM39.3351 17.8721C39.8504 17.8721 40.2681 18.2898 40.2681 18.8051C40.2681 19.3204 39.8504 19.7381 39.3351 19.7381C38.8198 19.7381 38.4021 19.3204 38.4021 18.8051C38.4021 18.2898 38.8198 17.8721 39.3351 17.8721ZM42.6238 40.4801C43.2213 41.0641 43.2322 42.0219 42.6482 42.6194C42.0641 43.2168 41.1063 43.2277 40.5088 42.6437C40.5006 42.6357 40.4926 42.6276 40.4845 42.6194L36.7293 38.8641L38.8686 36.7248L42.6238 40.4801ZM38.209 36.0652L36.0697 38.2045L34.7784 36.9133C34.8442 36.8629 34.9058 36.8074 34.9706 36.7556C35.0354 36.7038 35.1106 36.6418 35.1801 36.5835C35.2822 36.4976 35.383 36.4109 35.4819 36.3218C35.5327 36.2751 35.5812 36.2285 35.6312 36.1818C35.8224 36.0027 36.0076 35.8175 36.1867 35.6262C36.2334 35.5763 36.28 35.5278 36.3267 35.477C36.4158 35.3781 36.5026 35.2773 36.5884 35.1751C36.6469 35.1061 36.7043 35.0363 36.7605 34.9657C36.8118 34.9013 36.8674 34.8397 36.9177 34.774L38.209 36.0652ZM36.3999 33.8984C36.253 34.1036 36.1014 34.3047 35.9414 34.4983C35.8947 34.5547 35.8448 34.6093 35.7968 34.6648C35.654 34.8309 35.5066 34.992 35.3545 35.1481C35.2883 35.2165 35.2209 35.2838 35.1525 35.3501C34.997 35.5021 34.836 35.6496 34.6693 35.7923C34.6137 35.8389 34.5592 35.8898 34.5027 35.9369C34.3091 36.0969 34.1081 36.2485 33.9028 36.3955C29.0737 39.8455 22.3621 38.7275 18.9122 33.8984C15.4622 29.0693 16.5802 22.3577 21.4093 18.9077C26.2384 15.4577 32.9499 16.5757 36.3999 21.4048C39.0695 25.1415 39.0695 30.1617 36.3999 33.8984Z" fill="white"/>
</svg>
