<svg width="60" height="60" viewBox="0 0 60 60" fill="none" xmlns="http://www.w3.org/2000/svg">
<circle cx="30" cy="30" r="29.5" fill="#0E121A" stroke="#775DDA"/>
<path d="M22.6473 35.0356L22.6473 35.0355L22.6393 35.0275L17.9727 30.3609C17.9727 30.3609 17.9726 30.3608 17.9726 30.3608C17.877 30.2651 17.8232 30.1353 17.8232 30C17.8232 29.8647 17.877 29.7349 17.9726 29.6392C17.9726 29.6392 17.9727 29.6392 17.9727 29.6391L22.6393 24.9726L22.6394 24.9726L22.6473 24.9644C22.6944 24.9157 22.7507 24.8768 22.813 24.85L22.5547 24.2488L22.813 24.85C22.8752 24.8233 22.9422 24.8092 23.01 24.8086C23.0778 24.808 23.145 24.8209 23.2077 24.8466C23.2704 24.8723 23.3274 24.9102 23.3753 24.9581C23.4233 25.006 23.4612 25.063 23.4868 25.1257C23.5125 25.1885 23.5254 25.2557 23.5248 25.3234C23.5242 25.3912 23.5101 25.4582 23.4834 25.5205L24.0864 25.7795L23.4834 25.5205C23.4566 25.5827 23.4178 25.6391 23.369 25.6861L23.3689 25.6861L23.3609 25.6941L19.519 29.536L19.055 30L19.519 30.4641L23.3609 34.3059L23.3608 34.306L23.369 34.3139C23.4178 34.361 23.4566 34.4173 23.4834 34.4796C23.5101 34.5418 23.5242 34.6088 23.5248 34.6766C23.5254 34.7444 23.5125 34.8116 23.4868 34.8743C23.4612 34.937 23.4233 34.994 23.3753 35.0419L23.8394 35.506L23.3753 35.0419C23.3274 35.0899 23.2704 35.1278 23.2077 35.1534C23.145 35.1791 23.0778 35.192 23.01 35.1914C22.9422 35.1908 22.8752 35.1767 22.813 35.15C22.7507 35.1232 22.6944 35.0844 22.6473 35.0356Z" fill="white" stroke="white" stroke-width="1.3125"/>
<path d="M37.8249 24.5085C37.7173 24.3971 37.5886 24.3082 37.4462 24.2471C37.3039 24.1859 37.1508 24.1537 36.9959 24.1524C36.841 24.151 36.6874 24.1806 36.544 24.2392C36.4006 24.2979 36.2703 24.3845 36.1608 24.4941C36.0513 24.6036 35.9646 24.7339 35.906 24.8772C35.8473 25.0206 35.8178 25.1742 35.8191 25.3291C35.8205 25.4841 35.8527 25.6371 35.9138 25.7795C35.975 25.9218 36.0638 26.0506 36.1753 26.1582L40.0171 30L36.1753 33.8418C36.0638 33.9495 35.975 34.0782 35.9138 34.2205C35.8527 34.3629 35.8205 34.516 35.8191 34.6709C35.8178 34.8258 35.8473 34.9794 35.906 35.1228C35.9646 35.2662 36.0513 35.3964 36.1608 35.506C36.2703 35.6155 36.4006 35.7021 36.544 35.7608C36.6874 35.8195 36.841 35.849 36.9959 35.8476C37.1508 35.8463 37.3039 35.8141 37.4462 35.753C37.5886 35.6918 37.7173 35.6029 37.8249 35.4915L42.4916 30.8248C42.7103 30.6061 42.8332 30.3094 42.8332 30C42.8332 29.6907 42.7103 29.394 42.4916 29.1752L37.8249 24.5085Z" fill="white"/>
<path d="M31.212 21.5137L26.5454 37.847C26.4604 38.1443 26.497 38.4633 26.6471 38.7336C26.7971 39.004 27.0484 39.2038 27.3457 39.289C27.4502 39.3179 27.5581 39.3328 27.6665 39.3333C27.9201 39.3331 28.1666 39.2504 28.3689 39.0975C28.5712 38.9447 28.7182 38.7302 28.7877 38.4863L33.4544 22.153C33.503 22.0038 33.5211 21.8464 33.5075 21.6901C33.4939 21.5338 33.4489 21.3819 33.3752 21.2434C33.3015 21.1048 33.2006 20.9826 33.0786 20.884C32.9566 20.7854 32.816 20.7124 32.6651 20.6693C32.5142 20.6263 32.3562 20.6142 32.2005 20.6336C32.0449 20.6531 31.8947 20.7037 31.759 20.7826C31.6234 20.8614 31.505 20.9668 31.4111 21.0924C31.3171 21.218 31.2494 21.3613 31.212 21.5137Z" fill="white"/>
</svg>
